<svg height="511pt" viewBox="-17 1 511 511.999" width="511pt" xmlns="http://www.w3.org/2000/svg"><path d="m407.476562 342.140625c-25.828124-25.828125-56.542968-44.984375-90.050781-56.636719 29.898438-23.390625 49.15625-59.792968 49.15625-100.609375 0-18.859375-4.195312-37.527343-12.1875-54.472656.621094-1.933594 1.148438-3.890625 1.535157-5.875 4.039062-3.613281 9.5625-8.734375 15.121093-14.445313 17.613281-18.101562 25.46875-31.648437 25.46875-43.914062 0-8.015625-3.824219-18.921875-22.042969-25.386719-6.496093-2.300781-14.628906-4.230469-24.039062-6.464843-9.480469-2.25-20.226562-4.800782-30.597656-8.082032-9.382813-2.972656-17.933594-6.980468-26.203125-10.855468-16.152344-7.570313-32.855469-15.398438-54.683594-15.398438s-38.53125 7.828125-54.6875 15.398438c-8.265625 3.875-16.816406 7.882812-26.203125 10.855468-10.523438 3.332032-21.585938 5.910156-31.347656 8.183594-9.457032 2.203125-17.628906 4.105469-24.167969 6.382812-18.398437 6.402344-22.261719 17.328126-22.261719 25.371094 0 12.265625 7.855469 25.808594 25.46875 43.910156 5.566406 5.722657 11.097656 10.847657 15.136719 14.460938.476563 2.394531 1.132813 4.757812 1.953125 7.078125-7.621094 16.617187-11.621094 34.859375-11.621094 53.253906 0 40.820313 19.253906 77.222657 49.15625 100.609375-33.511718 11.65625-64.226562 30.8125-90.050781 56.640625-45.03125 45.023438-69.828125 104.894531-69.828125 168.570313h39.898438c0-99.859375 74.128906-182.71875 170.242187-196.480469l-33.722656 135.777344 61.980469 61.988281 61.976562-61.992188-33.71875-135.773437c96.117188 13.761719 170.246094 96.621094 170.246094 196.480469h39.898437c0-63.675782-24.796875-123.546875-69.824219-168.574219zm-271.707031-268.84375c10.46875-2.441406 22.335938-5.203125 34.34375-9.007813 11.886719-3.765624 22.085938-8.542968 31.085938-12.761718 13.863281-6.496094 24.8125-11.628906 37.753906-11.628906s23.890625 5.132812 37.753906 11.628906c8.996094 4.21875 19.195313 8.996094 31.085938 12.761718 11.777343 3.730469 23.28125 6.460938 33.433593 8.867188 2.453126.585938 5.183594 1.234375 7.878907 1.894531-5.507813 6.355469-13.246094 14.09375-21.1875 21.039063-18.808594-6.179688-51.359375-14.609375-88.96875-14.609375-37.800781 0-70.941407 8.515625-89.984375 14.6875-7.921875-6.914063-15.648438-14.632813-21.171875-20.988281 2.726562-.660157 5.492187-1.304688 7.976562-1.882813zm169.738281 57.695313c-12.964843 9.492187-36.269531 17.632812-66.554687 17.632812-22.792969 0-44.828125-4.875-60.464844-13.375-2.488281-1.355469-4.761719-2.785156-6.8125-4.261719 16.710938-4.65625 40.730469-9.609375 67.273438-9.609375 26.351562 0 50.097656 4.964844 66.558593 9.613282zm-154.386718 53.902343c0-6.179687.660156-12.328125 1.9375-18.332031 2.039062 1.289062 4.15625 2.539062 6.371094 3.742188 21.609374 11.75 49.851562 18.222656 79.519531 18.222656 29.648437 0 57.734375-6.492188 79.089843-18.285156 2.3125-1.277344 4.515626-2.617188 6.632813-3.992188 1.324219 6.101562 2.007813 12.355469 2.007813 18.644531 0 46.128907-35.765626 84.0625-81.027344 87.523438-2.246094-.0625-4.496094-.101563-6.753906-.101563-2.253907 0-4.507813.039063-6.753907.101563-45.257812-3.460938-81.023437-41.394531-81.023437-87.523438zm87.777344 270.671875-17.820313-17.824218 17.820313-71.75 17.820312 71.75zm89.777343 15.25h72.816407v39.898438h-72.816407zm0 0"/></svg>