<?xml version="1.0" encoding="utf-8"?>
<svg version="1.1" xmlns:xlink="http://www.w3.org/1999/xlink" width="31px" height="29px" xmlns="http://www.w3.org/2000/svg">
  <g transform="matrix(1 0 0 1 -1021 -368 )">
    <path d="M 19.01171875 17.78515625  C 20.6449318910256 16.2573116987179  21.4615384615385 14.4186698717949  21.4615384615385 12.2692307692308  C 21.4615384615385 10.1197916666667  20.6449318910256 8.28114983974359  19.01171875 6.75330528846154  C 17.3785056089744 5.22546073717949  15.4130608974359 4.46153846153846  13.1153846153846 4.46153846153846  C 10.8177083333333 4.46153846153846  8.85226362179487 5.22546073717949  7.21905048076923 6.75330528846154  C 5.58583733974359 8.28114983974359  4.76923076923077 10.1197916666667  4.76923076923077 12.2692307692308  C 4.76923076923077 14.4186698717949  5.58583733974359 16.2573116987179  7.21905048076923 17.78515625  C 8.85226362179487 19.313000801282  10.8177083333333 20.0769230769231  13.1153846153846 20.0769230769231  C 15.4130608974359 20.0769230769231  17.3785056089744 19.313000801282  19.01171875 17.78515625  Z M 30.3106971153846 25.2007211538462  C 30.7702323717949 25.630608974359  31 26.1534455128205  31 26.7692307692308  C 31 27.3733974358974  30.7640224358974 27.896233974359  30.2920673076923 28.3377403846154  C 29.8201121794872 28.7792467948718  29.261217948718 29  28.6153846153846 29  C 27.9447115384615 29  27.3858173076923 28.7792467948718  26.9387019230769 28.3377403846154  L 20.5486778846154 22.3774038461538  C 18.3255208333333 23.818108974359  15.8477564102564 24.5384615384615  13.1153846153846 24.5384615384615  C 11.3393429487179 24.5384615384615  9.64092548076923 24.2160456730769  8.02013221153846 23.5712139423077  C 6.39933894230769 22.9263822115385  5.00210336538462 22.0549879807692  3.82842548076923 20.95703125  C 2.65474759615385 19.8590745192308  1.72325721153846 18.5519831730769  1.03395432692308 17.0357572115385  C 0.344651442307692 15.51953125  0 13.9306891025641  0 12.2692307692308  C 0 10.6077724358974  0.344651442307692 9.01893028846154  1.03395432692308 7.50270432692308  C 1.72325721153846 5.98647836538462  2.65474759615385 4.67938701923077  3.82842548076923 3.58143028846154  C 5.00210336538462 2.48347355769231  6.39933894230769 1.61207932692308  8.02013221153846 0.967247596153847  C 9.64092548076923 0.322415865384615  11.3393429487179 0  13.1153846153846 0  C 14.8914262820513 0  16.58984375 0.322415865384615  18.2106370192308 0.967247596153847  C 19.8314302884615 1.61207932692308  21.2286658653846 2.48347355769231  22.40234375 3.58143028846154  C 23.5760216346154 4.67938701923077  24.5075120192308 5.98647836538462  25.1968149038462 7.50270432692308  C 25.8861177884615 9.01893028846154  26.2307692307692 10.6077724358974  26.2307692307692 12.2692307692308  C 26.2307692307692 14.8253205128205  25.4607371794872 17.1432291666667  23.9206730769231 19.2229567307692  L 30.3106971153846 25.2007211538462  Z " fill-rule="nonzero" fill="#ffffff" stroke="none" transform="matrix(1 0 0 1 1021 368 )" />
  </g>
</svg>